<svg xmlns="http://www.w3.org/2000/svg" xmlns:xlink="http://www.w3.org/1999/xlink" viewBox="0 0 283.5 130.4" enable-background="new 0 0 283.5 130.4"><style type="text/css">.st0{fill:#C5C6C6;} .st1{fill:#D9DADA;} .st2{fill:#9C9C9D;} .st3{fill-rule:evenodd;clip-rule:evenodd;fill:#EAC08B;} .st4{fill:#6E6F6E;} .st5{fill-rule:evenodd;clip-rule:evenodd;fill:#67CAF4;} .st6{fill-rule:evenodd;clip-rule:evenodd;fill:#713A01;} .st7{fill:#713A01;} .st8{fill-rule:evenodd;clip-rule:evenodd;fill:#156FBD;} .st9{fill:#FFFFFF;} .st10{clip-path:url(#SVGID_2_);} .st11{fill:#3B3A39;} .st12{clip-path:url(#SVGID_4_);} .st13{clip-path:url(#SVGID_6_);} .st14{clip-path:url(#SVGID_8_);} .st15{clip-path:url(#SVGID_10_);} .st16{fill:#3A3A39;} .st17{fill:#A45600;} .st18{fill:#B48348;}</style><path d="M84.5 34.6c-.4 0-.6 0-.8 0v.7c.2 0 .5 0 .8 0v-.7zm1.2 0c-.3 0-.6 0-.8 0v.7c.3 0 .5 0 .8 0v-.7zm1.3-.1c-.3 0-.6 0-.8 0v.7c.3 0 .5 0 .8 0v-.7zm1.2-.1c-.3 0-.6 0-.8 0v.7c.3 0 .5 0 .8 0v-.7zm1.3 0c-.3 0-.6 0-.8 0v.7c.3 0 .5 0 .8 0v-.7zm1.2-.1c-.3 0-.6 0-.8 0v.7c.3 0 .6 0 .8 0v-.7zm1.3 0c-.3 0-.6 0-.8 0v.7c.3 0 .6 0 .8 0v-.7zm1.2-.1c-.3 0-.6 0-.8 0v.7c.3 0 .6 0 .8 0v-.7zm1.3-.1c-.3 0-.6 0-.8 0v.7c.3 0 .6 0 .8 0v-.7zm1.3 0c-.3 0-.6 0-.8 0v.7c.3 0 .6 0 .8 0v-.7zM97 34c-.3 0-.6 0-.8 0v.7c.3 0 .6 0 .8 0V34zm1.3 0c-.3 0-.6 0-.8 0v.7c.3 0 .6 0 .8 0V34zm1.2-.1c-.3 0-.6 0-.8 0v.7c.3 0 .6 0 .8 0v-.7zm1.3-.1c-.3 0-.6 0-.8 0v.7c.3 0 .6 0 .8 0v-.7zm1.2 0c-.3 0-.6 0-.8 0v.7c.3 0 .6 0 .8 0v-.7zm1.3-.1c-.3 0-.6 0-.8 0v.7c.3 0 .6 0 .8 0v-.7zm1.2 0c-.3 0-.6 0-.8 0v.7c.3 0 .6 0 .8 0v-.7zm1.3-.1c-.3 0-.6 0-.8 0v.7c.3 0 .6 0 .8 0v-.7zm1.3 0c-.3 0-.6 0-.8 0v.7c.3 0 .6 0 .8 0v-.7zm1.2-.1c-.3 0-.6 0-.8 0v.7c.3 0 .6 0 .8 0v-.7zm1.3-.1c-.3 0-.6 0-.8 0v.7c.3 0 .6 0 .8 0v-.7zm1.2 0c-.3 0-.6 0-.8 0v.7c.3 0 .6 0 .8 0v-.7zm1.3-.1c-.3 0-.6 0-.8 0v.7c.3 0 .6 0 .8 0v-.7zm1.2 0c-.3 0-.6 0-.8 0v.7c.3 0 .6 0 .8 0v-.7zm1.3-.1c-.3 0-.6 0-.8 0v.7c.3 0 .6 0 .8 0v-.7zm1.2 0c-.3 0-.6 0-.8 0v.7c.3 0 .6 0 .8 0v-.7zm1.3-.1c-.3 0-.6 0-.8 0v.7c.3 0 .6 0 .8 0v-.7zm1.2 0c-.3 0-.6 0-.8 0v.7c.3 0 .6 0 .8 0v-.7zm1.3-.1c-.3 0-.6 0-.8 0v.7c.3 0 .6 0 .8 0V33zm1.3 0c-.3 0-.6 0-.8 0v.7c.3 0 .6 0 .8 0V33zm1.2-.1c-.3 0-.6 0-.8 0v.7c.3 0 .6 0 .8 0v-.7zm1.3 0c-.3 0-.6 0-.8 0v.7c.3 0 .6 0 .8 0v-.7zm1.2-.1c-.3 0-.6 0-.8 0v.7c.3 0 .6 0 .8 0v-.7zm1.3 0c-.3 0-.6 0-.8 0v.7c.3 0 .6 0 .8 0v-.7zm1.2-.1c-.3 0-.6 0-.8 0v.7c.3 0 .6 0 .8 0v-.7zm1.3 0c-.3 0-.6 0-.8 0v.7c.3 0 .6 0 .8 0v-.7zm1.3 0c-.3 0-.6 0-.8 0v.7c.3 0 .6 0 .8 0v-.7zm1.2-.1c-.3 0-.6 0-.8 0v.7c.3 0 .6 0 .8 0v-.7zm1.3 0c-.3 0-.6 0-.8 0v.7c.3 0 .6 0 .8 0v-.7zm1.2-.1c-.3 0-.6 0-.8 0v.7c.3 0 .6 0 .8 0v-.7zm1.3 0c-.3 0-.6 0-.8 0v.7c.3 0 .6 0 .8 0v-.7zm1.2 0c-.3 0-.6 0-.8 0v.7c.3 0 .6 0 .8 0v-.7zm1.3-.1c-.3 0-.6 0-.8 0v.7c.3 0 .6 0 .8 0v-.7zm1.2 0c-.3 0-.6 0-.8 0v.7c.3 0 .6 0 .8 0v-.7zm1.3-.1c-.3 0-.6 0-.8 0v.7c.3 0 .6 0 .8 0v-.7zm1.3 0c-.3 0-.6 0-.8 0v.7c.3 0 .6 0 .8 0v-.7zm1.2 0c-.3 0-.6 0-.8 0v.7c.3 0 .6 0 .8 0v-.7zm1.3-.1c-.3 0-.6 0-.8 0v.7c.3 0 .6 0 .8 0v-.7zm1.2 0c-.3 0-.6 0-.8 0v.7c.3 0 .6 0 .8 0v-.7zm1.3 0c-.3 0-.6 0-.8 0v.7c.3 0 .6 0 .8 0v-.7zm1.2 0c-.3 0-.6 0-.8 0v.7c.3 0 .6 0 .8 0v-.7zm1.3-.1c-.3 0-.6 0-.8 0v.7c.3 0 .6 0 .8 0v-.7zm1.2 0c-.3 0-.6 0-.8 0v.7c.3 0 .6 0 .8 0v-.7zm1.3 0c-.3 0-.6 0-.8 0v.7c.3 0 .6 0 .8 0v-.7zm1.3 0c-.3 0-.6 0-.8 0v.7c.3 0 .6 0 .8 0v-.7zm1.2 0c-.3 0-.6 0-.8 0v.7c.3 0 .6 0 .8 0v-.7zm1.3-.1c-.3 0-.6 0-.8 0v.7c.3 0 .6 0 .8 0V32zm1.2 0c-.3 0-.6 0-.8 0v.7c.3 0 .6 0 .8 0V32zm1.3 0c-.3 0-.6 0-.8 0v.7c.3 0 .6 0 .8 0V32zm1.2 0c-.3 0-.6 0-.8 0v.7c.3 0 .6 0 .8 0V32zm1.3 0c-.3 0-.6 0-.8 0v.7c.3 0 .6 0 .8 0V32zm1.3 0c-.3 0-.6 0-.8 0v.7c.3 0 .6 0 .8 0V32zm1.2 0c-.3 0-.6 0-.8 0v.7c.3 0 .6 0 .8 0V32zm1.3.1c-.3 0-.6 0-.8 0v.7c.3 0 .6 0 .8 0v-.7zm1.2 0c-.3 0-.6 0-.8 0v.7c.3 0 .6 0 .8 0v-.7zm1.3 0c-.3 0-.6 0-.8 0v.7c.3 0 .6 0 .8 0v-.7zm1.2 0c-.3 0-.6 0-.8 0v.7c.3 0 .6 0 .8 0v-.7zm1.3 0c-.3 0-.6 0-.8 0v.7c.3 0 .6 0 .8 0v-.7zm1.3.1c-.3 0-.6 0-.8 0v.7c.3 0 .6 0 .8 0v-.7zm1.2 0c-.3 0-.6 0-.8 0v.7c.3 0 .6 0 .8 0v-.7zm1.3 0c-.3 0-.6 0-.8 0v.7c.3 0 .6 0 .8 0v-.7zm1.2 0c-.3 0-.6 0-.8 0v.7c.3 0 .6 0 .8 0v-.7zm1.3.1c-.3 0-.6 0-.8 0v.7c.3 0 .6 0 .8 0v-.7zm1.2 0c-.3 0-.6 0-.8 0v.7c.3 0 .6 0 .8 0v-.7zm1.3 0c-.3 0-.6 0-.8 0v.7c.3 0 .6 0 .8 0v-.7zm1.2.1c-.3 0-.6 0-.8 0v.7c.3 0 .6 0 .8 0v-.7zm1.3 0c-.3 0-.6 0-.8 0v.7c.3 0 .6 0 .8 0v-.7zm1.3.1c-.3 0-.6 0-.8 0v.7c.3 0 .6 0 .8 0v-.7zm1.2 0c-.3 0-.6 0-.8 0v.7c.3 0 .6 0 .8 0v-.7zm1.3 0c-.3 0-.6 0-.8 0v.7c.3 0 .6 0 .8 0v-.7zm1.2.1c-.3 0-.6 0-.8 0v.7c.3 0 .6 0 .8 0v-.7zm1.3 0c-.3 0-.6 0-.8 0v.7c.3 0 .6 0 .8 0v-.7zm1.2.1c-.3 0-.6 0-.8 0v.7c.3 0 .6 0 .8 0v-.7zm1.3 0c-.3 0-.6 0-.8 0v.7c.3 0 .6 0 .8 0v-.7zm1.3 0c-.3 0-.6 0-.8 0v.7c.3 0 .6 0 .8 0v-.7zm1.2.1c-.3 0-.6 0-.8 0v.7c.3 0 .6 0 .8 0v-.7zm1.3 0c-.3 0-.6 0-.8 0v.7c.3 0 .6 0 .8 0v-.7zm1.2.1c-.3 0-.6 0-.8 0v.7c.3 0 .6 0 .8 0v-.7zm1.3 0c-.3 0-.6 0-.8 0v.7c.3 0 .6 0 .8 0v-.7zm1.2.1c-.3 0-.6 0-.8 0v.7c.3 0 .6 0 .8 0V33zm1.3 0c-.3 0-.6 0-.8 0v.7c.3 0 .6 0 .8 0V33zm1.2.1c-.3 0-.6 0-.8 0v.7c.3 0 .6 0 .8 0v-.7zm1.3 0c-.3 0-.6 0-.8 0v.7c.3 0 .6 0 .8 0v-.7zm1.2.1c-.3 0-.6 0-.8 0v.7c.3 0 .6 0 .8 0v-.7zm1.3 0c-.3 0-.6 0-.8 0v.7c.3 0 .6 0 .8 0v-.7zm1.3.1c-.3 0-.6 0-.8 0v.7c.3 0 .6 0 .8 0v-.7zm1.2 0c-.3 0-.6 0-.8 0v.7c.3 0 .6 0 .8 0v-.7zm1.3.1c-.3 0-.6 0-.8 0v.7c.3 0 .6 0 .8 0v-.7zm1.2 0c-.3 0-.6 0-.8 0v.7c.3 0 .6 0 .8 0v-.7zm1.3.1c-.3 0-.6 0-.8 0v.7c.3 0 .6 0 .8 0v-.7zm1.2.1c-.3 0-.6 0-.8 0v.7c.3 0 .6 0 .8 0v-.7zm1.3 0c-.3 0-.6 0-.8 0v.7c.3 0 .6 0 .8 0v-.7zm1.2.1c-.3 0-.6 0-.8 0v.7c.3 0 .6 0 .8 0v-.7zm1.3 0c-.3 0-.6 0-.8 0v.7c.3 0 .6 0 .8 0v-.7zm1.3.1c-.3 0-.6 0-.8 0v.7c.3 0 .6 0 .8 0v-.7zm1.2 0c-.3 0-.6 0-.8 0v.7c.3 0 .6 0 .8 0v-.7zm1.3.1c-.3 0-.6 0-.8 0v.7c.3 0 .6 0 .8 0v-.7zm1.2.1c-.3 0-.6 0-.8 0v.7c.3 0 .6 0 .8 0V34zm1.3 0c-.3 0-.6 0-.8 0v.7c.3 0 .6 0 .8 0V34zm1.2.1c-.3 0-.6 0-.8 0v.7c.3 0 .6 0 .8 0v-.7zm1.3 0c-.3 0-.6 0-.8 0v.7c.3 0 .6 0 .8 0v-.7zm1.2.1c-.3 0-.6 0-.8 0v.7c.3 0 .6 0 .8 0v-.7zm1.3.1c-.3 0-.6 0-.8 0v.7c.3 0 .6 0 .8 0v-.7zm1.2 0c-.3 0-.6 0-.8 0v.7c.3 0 .6 0 .8 0v-.7zm1.3.1c-.3 0-.6 0-.8 0v.7c.3 0 .6 0 .8 0v-.7zm1.3 0c-.3 0-.5 0-.8 0v.7c.3 0 .6 0 .8 0v-.7zm1.2.1c-.3 0-.5 0-.8 0v.7c.3 0 .6 0 .8 0v-.7zm1.3.1c-.3 0-.5 0-.8 0v.7c.3 0 .6 0 .8 0v-.7zm1.2 0c-.2 0-.5 0-.8 0v.7c.3 0 .6 0 .8 0v-.7zm1.3.1s-.3 0-.8 0v.7c.6 0 .8 0 .8 0v-.7zM84.5 34.8c-.4 0-.6 0-.8 0v.7c.2 0 .5 0 .8 0v-.7zm1.2 0c-.3 0-.6 0-.8 0v.7c.3 0 .5 0 .8 0v-.7zm1.3.1c-.3 0-.6 0-.8 0v.7c.3 0 .5 0 .8 0v-.7zm1.3.1c-.3 0-.6 0-.8 0v.7c.3 0 .5 0 .8 0V35zm1.2 0c-.3 0-.6 0-.8 0v.7c.3 0 .5 0 .8 0V35zm1.3.1c-.3 0-.6 0-.8 0v.7c.3 0 .6 0 .8 0v-.7zm1.2 0c-.3 0-.6 0-.8 0v.7c.3 0 .6 0 .8 0v-.7zm1.3.1c-.3 0-.6 0-.8 0v.7c.3 0 .6 0 .8 0v-.7zm1.2.1c-.3 0-.6 0-.8 0v.7c.3 0 .6 0 .8 0v-.7zm1.3 0c-.3 0-.6 0-.8 0v.7c.3 0 .6 0 .8 0v-.7zm1.2.1c-.3 0-.6 0-.8 0v.7c.3 0 .6 0 .8 0v-.7zm1.3.1c-.3 0-.6 0-.8 0v.7c.3 0 .6 0 .8 0v-.7zm1.3 0c-.3 0-.6 0-.8 0v.7c.3 0 .6 0 .8 0v-.7zm1.2.1c-.3 0-.6 0-.8 0v.7c.3 0 .6 0 .8 0v-.7zm1.3 0c-.3 0-.6 0-.8 0v.7c.3 0 .6 0 .8 0v-.7zm1.2.1c-.3 0-.6 0-.8 0v.7c.3 0 .6 0 .8 0v-.7zm1.3 0c-.3 0-.6 0-.8 0v.7c.3 0 .6 0 .8 0v-.7zm1.2.1c-.3 0-.6 0-.8 0v.7c.3 0 .6 0 .8 0v-.7zm1.3.1c-.3 0-.6 0-.8 0v.7c.3 0 .6 0 .8 0v-.7zm1.2 0c-.3 0-.6 0-.8 0v.7c.3 0 .6 0 .8 0v-.7zm1.3.1c-.3 0-.6 0-.8 0v.7c.3 0 .6 0 .8 0V36zm1.2 0c-.3 0-.6 0-.8 0v.7c.3 0 .6 0 .8 0V36zm1.3.1c-.3 0-.6 0-.8 0v.7c.3 0 .6 0 .8 0v-.7zm1.3 0c-.3 0-.6 0-.8 0v.7c.3 0 .6 0 .8 0v-.7zm1.2.1c-.3 0-.6 0-.8 0v.7c.3 0 .6 0 .8 0v-.7zm1.3 0c-.3 0-.6 0-.8 0v.7c.3 0 .6 0 .8 0v-.7zm1.2.1c-.3 0-.6 0-.8 0v.7c.3 0 .6 0 .8 0v-.7zm1.3 0c-.3 0-.6 0-.8 0v.7c.3 0 .6 0 .8 0v-.7zm1.2.1c-.3 0-.6 0-.8 0v.7c.3 0 .6 0 .8 0v-.7zm1.3 0c-.3 0-.6 0-.8 0v.7c.3 0 .6 0 .8 0v-.7zm1.2.1c-.3 0-.6 0-.8 0v.7c.3 0 .6 0 .8 0v-.7zm1.3 0c-.3 0-.6 0-.8 0v.7c.3 0 .6 0 .8 0v-.7zm1.3.1c-.3 0-.6 0-.8 0v.7c.3 0 .6 0 .8 0v-.7zm1.2 0c-.3 0-.6 0-.8 0v.7c.3 0 .6 0 .8 0v-.7zm1.3.1c-.3 0-.6 0-.8 0v.7c.3 0 .6 0 .8 0v-.7zm1.2 0c-.3 0-.6 0-.8 0v.7c.3 0 .6 0 .8 0v-.7zm1.3.1c-.3 0-.6 0-.8 0v.7c.3 0 .6 0 .8 0v-.7zm1.2 0c-.3 0-.6 0-.8 0v.7c.3 0 .6 0 .8 0v-.7zm1.3 0c-.3 0-.6 0-.8 0v.7c.3 0 .6 0 .8 0v-.7zm1.2.1c-.3 0-.6 0-.8 0v.7c.3 0 .6 0 .8 0v-.7zm1.3 0c-.3 0-.6 0-.8 0v.7c.3 0 .6 0 .8 0v-.7zm1.2.1c-.3 0-.6 0-.8 0v.7c.3 0 .6 0 .8 0V37zm1.3 0c-.3 0-.6 0-.8 0v.7c.3 0 .6 0 .8 0V37zm1.3 0c-.3 0-.6 0-.8 0v.7c.3 0 .6 0 .8 0V37zm1.2.1c-.3 0-.6 0-.8 0v.7c.3 0 .6 0 .8 0v-.7zm1.3 0c-.3 0-.6 0-.8 0v.7c.3 0 .6 0 .8 0v-.7zm1.2 0c-.3 0-.6 0-.8 0v.7c.3 0 .6 0 .8 0v-.7zm1.3.1c-.3 0-.6 0-.8 0v.7c.3 0 .6 0 .8 0v-.7zm1.2 0c-.3 0-.6 0-.8 0v.7c.3 0 .6 0 .8 0v-.7zm1.3 0c-.3 0-.6 0-.8 0v.7c.3 0 .6 0 .8 0v-.7zm1.2.1c-.3 0-.6 0-.8 0v.7c.3 0 .6 0 .8 0v-.7zm1.3 0c-.3 0-.6 0-.8 0v.7c.3 0 .6 0 .8 0v-.7zm1.3 0c-.3 0-.6 0-.8 0v.7c.3 0 .6 0 .8 0v-.7zm1.2 0c-.3 0-.6 0-.8 0v.7c.3 0 .6 0 .8 0v-.7zm1.3 0c-.3 0-.6 0-.8 0v.7c.3 0 .6 0 .8 0v-.7zm1.2.1c-.3 0-.6 0-.8 0v.7c.3 0 .6 0 .8 0v-.7zm1.3 0c-.3 0-.6 0-.8 0v.7c.3 0 .6 0 .8 0v-.7zm1.2 0c-.3 0-.6 0-.8 0v.7c.3 0 .6 0 .8 0v-.7zm1.3 0c-.3 0-.6 0-.8 0v.7c.3 0 .6 0 .8 0v-.7zm1.2 0c-.3 0-.6 0-.8 0v.7c.3 0 .6 0 .8 0v-.7zm1.3 0c-.3 0-.6 0-.8 0v.7c.3 0 .6 0 .8 0v-.7zm1.3 0c-.3 0-.6 0-.8 0v.7c.3 0 .6 0 .8 0v-.7zm1.2 0c-.3 0-.6 0-.8 0v.7c.3 0 .6 0 .8 0v-.7zm1.3 0c-.3 0-.6 0-.8 0v.7c.3 0 .6 0 .8 0v-.7zm1.2-.1c-.3 0-.6 0-.8 0v.7c.3 0 .6 0 .8 0v-.7zm1.3 0c-.3 0-.6 0-.8 0v.7c.3 0 .6 0 .8 0v-.7zm1.2 0c-.3 0-.6 0-.8 0v.7c.3 0 .6 0 .8 0v-.7zm1.3 0c-.3 0-.6 0-.8 0v.7c.3 0 .6 0 .8 0v-.7zm1.2 0c-.3 0-.6 0-.8 0v.7c.3 0 .6 0 .8 0v-.7zm1.3-.1c-.3 0-.6 0-.8 0v.7c.3 0 .6 0 .8 0v-.7zm1.3 0c-.3 0-.6 0-.8 0v.7c.3 0 .6 0 .8 0v-.7zm1.2 0c-.3 0-.6 0-.8 0v.7c.3 0 .6 0 .8 0v-.7zm1.3-.1c-.3 0-.6 0-.8 0v.7c.3 0 .6 0 .8 0v-.7zm1.2 0c-.3 0-.6 0-.8 0v.7c.3 0 .6 0 .8 0v-.7zm1.3 0c-.3 0-.6 0-.8 0v.7c.3 0 .6 0 .8 0v-.7zm1.2-.1c-.3 0-.6 0-.8 0v.7c.3 0 .6 0 .8 0V37zm1.3 0c-.3 0-.6 0-.8 0v.7c.3 0 .6 0 .8 0V37zm1.2 0c-.3 0-.6 0-.8 0v.7c.3 0 .6 0 .8 0V37zm1.3-.1c-.3 0-.6 0-.8 0v.7c.3 0 .6 0 .8 0v-.7zm1.2 0c-.3 0-.6 0-.8 0v.7c.3 0 .6 0 .8 0v-.7zm1.3-.1c-.3 0-.6 0-.8 0v.7c.3 0 .6 0 .8 0v-.7zm1.3 0c-.3 0-.6 0-.8 0v.7c.3 0 .6 0 .8 0v-.7zm1.2 0c-.3 0-.6 0-.8 0v.7c.3 0 .6 0 .8 0v-.7zm1.3-.1c-.3 0-.6 0-.8 0v.7c.3 0 .6 0 .8 0v-.7zm1.2 0c-.3 0-.6 0-.8 0v.7c.3 0 .6 0 .8 0v-.7zm1.3-.1c-.3 0-.6 0-.8 0v.7c.3 0 .6 0 .8 0v-.7zm1.2 0c-.3 0-.6 0-.8 0v.7c.3 0 .6 0 .8 0v-.7zm1.3-.1c-.3 0-.6 0-.8 0v.7c.3 0 .6 0 .8 0v-.7zm1.2 0c-.3 0-.6 0-.8 0v.7c.3 0 .6 0 .8 0v-.7zm1.3-.1c-.3 0-.6 0-.8 0v.7c.3 0 .6 0 .8 0v-.7zm1.3 0c-.3 0-.6 0-.8 0v.7c.3 0 .6 0 .8 0v-.7zm1.2-.1c-.3 0-.6 0-.8 0v.7c.3 0 .6 0 .8 0v-.7zm1.3 0c-.3 0-.6 0-.8 0v.7c.3 0 .6 0 .8 0v-.7zm1.2-.1c-.3 0-.6 0-.8 0v.7c.3 0 .6 0 .8 0v-.7zm1.3 0c-.3 0-.6 0-.8 0v.7c.3 0 .6 0 .8 0v-.7zm1.2-.1c-.3 0-.6 0-.8 0v.7c.3 0 .6 0 .8 0v-.7zm1.3 0c-.3 0-.6 0-.8 0v.7c.3 0 .6 0 .8 0v-.7zm1.2-.1c-.3 0-.6 0-.8 0v.7c.3 0 .6 0 .8 0V36zm1.3 0c-.3 0-.6 0-.8 0v.7c.3 0 .6 0 .8 0V36zm1.2-.1c-.3 0-.6 0-.8 0v.7c.3 0 .6 0 .8 0v-.7zm1.3 0c-.3 0-.6 0-.8 0v.7c.3 0 .6 0 .8 0v-.7zm1.3-.1c-.3 0-.6 0-.8 0v.7c.3 0 .6 0 .8 0v-.7zm1.2-.1c-.3 0-.6 0-.8 0v.7c.3 0 .6 0 .8 0v-.7zm1.3 0c-.3 0-.6 0-.8 0v.7c.3 0 .6 0 .8 0v-.7zm1.2-.1c-.3 0-.6 0-.8 0v.7c.3 0 .6 0 .8 0v-.7zm1.3 0c-.3 0-.6 0-.8 0v.7c.3 0 .6 0 .8 0v-.7zm1.2-.1c-.3 0-.6 0-.8 0v.7c.3 0 .6 0 .8 0v-.7zm1.3 0c-.3 0-.6 0-.8 0v.7c.3 0 .6 0 .8 0v-.7zm1.2-.1c-.3 0-.6 0-.8 0v.7c.3 0 .6 0 .8 0v-.7zm1.3-.1c-.3 0-.6 0-.8 0v.7c.3 0 .6 0 .8 0v-.7zm1.2 0c-.3 0-.6 0-.8 0v.7c.3 0 .6 0 .8 0v-.7zm1.3-.1c-.3 0-.6 0-.8 0v.7c.3 0 .6 0 .8 0v-.7zm1.3 0c-.3 0-.6 0-.8 0v.7c.3 0 .6 0 .8 0v-.7zm1.2-.1c-.3 0-.6 0-.8 0v.7c.3 0 .6 0 .8 0v-.7zm1.3-.1c-.3 0-.6 0-.8 0v.7c.3 0 .6 0 .8 0V35zm1.2 0c-.3 0-.5 0-.8 0v.7c.3 0 .6 0 .8 0V35zm1.3-.1c-.3 0-.5 0-.8 0v.7c.3 0 .6 0 .8 0v-.7zm1.2-.1c-.3 0-.5 0-.8 0v.7c.3 0 .6 0 .8 0v-.7zm1.3 0c-.2 0-.5 0-.8 0v.7c.3 0 .6 0 .8 0v-.7zm1.3-.1s-.3 0-.8 0v.7c.6 0 .8 0 .8 0v-.7z" class="st0"/><path d="M233.9 35.4v-.7.7zm-1.3 0h.8v-.7h-.8v.7zm-1.2 0h.8v-.7h-.8v.7zm-1.3 0h.8v-.7h-.8v.7zm-1.2 0h.8v-.7h-.8v.7zm-1.3 0h.8v-.7h-.8v.7zm-1.3 0h.8v-.7h-.8v.7zm-1.2 0h.8v-.7h-.8v.7zm-1.3 0h.8v-.7h-.8v.7zm-1.2 0h.8v-.7h-.8v.7zm-1.3 0h.8v-.7h-.8v.7zm-1.2 0h.8v-.7h-.8v.7zm-1.3 0h.8v-.7h-.8v.7zm-1.2 0h.8v-.7h-.8v.7zm-1.3 0h.8v-.7h-.8v.7zm-1.3 0h.8v-.7h-.8v.7zm-1.2 0h.8v-.7h-.8v.7zm-1.3 0h.8v-.7h-.8v.7zm-1.2 0h.8v-.7h-.8v.7zm-1.3 0h.8v-.7h-.8v.7zm-1.2 0h.8v-.7h-.8v.7zm-1.3 0h.8v-.7h-.8v.7zm-1.2 0h.8v-.7h-.8v.7zm-1.3 0h.8v-.7h-.8v.7zm-1.3 0h.8v-.7h-.8v.7zm-1.2 0h.8v-.7h-.8v.7zm-1.3 0h.8v-.7h-.8v.7zm-1.2 0h.8v-.7h-.8v.7zm-1.3 0h.8v-.7h-.8v.7zm-1.2 0h.8v-.7h-.8v.7zm-1.3 0h.8v-.7h-.8v.7zm-1.2 0h.8v-.7h-.8v.7zm-1.3 0h.8v-.7h-.8v.7zm-1.2 0h.8v-.7h-.8v.7zm-1.3 0h.8v-.7h-.8v.7zm-1.3 0h.8v-.7h-.8v.7zm-1.2 0h.8v-.7h-.8v.7zm-1.3 0h.8v-.7h-.8v.7zm-1.2 0h.8v-.7h-.8v.7zm-1.3 0h.8v-.7h-.8v.7zm-1.2 0h.8v-.7h-.8v.7zm-1.3 0h.8v-.7h-.8v.7zm-1.2 0h.8v-.7h-.8v.7zm-1.3 0h.8v-.7h-.8v.7zm-1.3 0h.8v-.7h-.8v.7zm-1.2 0h.8v-.7h-.8v.7zm-1.3 0h.8v-.7h-.8v.7zm-1.2 0h.8v-.7h-.8v.7zm-1.3 0h.8v-.7h-.8v.7zm-1.2 0h.8v-.7h-.8v.7zm-1.3 0h.8v-.7h-.8v.7zm-1.2 0h.8v-.7h-.8v.7zm-1.3 0h.8v-.7h-.8v.7zm-1.3 0h.8v-.7h-.8v.7zm-1.2 0h.8v-.7h-.8v.7zm-1.3 0h.8v-.7h-.8v.7zm-1.2 0h.8v-.7h-.8v.7zm-1.3 0h.8v-.7h-.8v.7zm-1.2 0h.8v-.7h-.8v.7zm-1.3 0h.8v-.7h-.8v.7zm-1.2 0h.8v-.7h-.8v.7zm-1.3 0h.8v-.7h-.8v.7zm-1.3 0h.8v-.7h-.8v.7zm-1.2 0h.8v-.7h-.8v.7zm-1.3 0h.8v-.7h-.8v.7zm-1.2 0h.8v-.7h-.8v.7zm-1.3 0h.8v-.7h-.8v.7zm-1.2 0h.8v-.7h-.8v.7zm-1.3 0h.8v-.7h-.8v.7zm-1.2 0h.8v-.7h-.8v.7zm-1.3 0h.8v-.7h-.8v.7zm-1.3 0h.8v-.7h-.8v.7zm-1.2 0h.8v-.7h-.8v.7zm-1.3 0h.8v-.7h-.8v.7zm-1.2 0h.8v-.7h-.8v.7zm-1.3 0h.8v-.7h-.8v.7zm-1.2 0h.8v-.7h-.8v.7zm-1.3 0h.8v-.7h-.8v.7zm-1.2 0h.8v-.7h-.8v.7zm-1.3 0h.8v-.7h-.8v.7zm-1.3 0h.8v-.7h-.8v.7zm-1.2 0h.8v-.7h-.8v.7zm-1.3 0h.8v-.7h-.8v.7zm-1.2 0h.8v-.7h-.8v.7zm-1.3 0h.8v-.7h-.8v.7zm-1.2 0h.8v-.7h-.8v.7zm-1.3 0h.8v-.7h-.8v.7zm-1.2 0h.8v-.7h-.8v.7zm-1.3 0h.8v-.7h-.8v.7zm-1.3 0h.8v-.7h-.8v.7zm-1.2 0h.8v-.7h-.8v.7zm-1.3 0h.8v-.7h-.8v.7zm-1.2 0h.8v-.7h-.8v.7zm-1.3 0h.8v-.7h-.8v.7zm-1.2 0h.8v-.7h-.8v.7zm-1.3 0h.8v-.7h-.8v.7zm-1.2 0h.8v-.7h-.8v.7zm-1.3 0h.8v-.7h-.8v.7zm-1.3 0h.8v-.7h-.8v.7zm-1.2 0h.8v-.7h-.8v.7zm-1.3 0h.8v-.7h-.8v.7zm-1.2 0h.8v-.7h-.8v.7zm-1.3 0h.8v-.7h-.8v.7zm-1.2 0h.8v-.7h-.8v.7zm-1.3 0h.8v-.7h-.8v.7zm-1.2 0h.8v-.7h-.8v.7zm-1.3 0h.8v-.7h-.8v.7zm-1.3 0h.8v-.7h-.8v.7zm-1.2 0h.8v-.7h-.8v.7zm-1.3 0h.8v-.7H97v.7zm-1.2 0h.8v-.7h-.8v.7zm-1.3 0h.8v-.7h-.8v.7zm-1.2 0h.8v-.7h-.8v.7zm-1.3 0h.8v-.7H92v.7zm-1.2 0h.8v-.7h-.8v.7zm-1.3 0h.8v-.7h-.8v.7zm-1.3 0h.8v-.7h-.8v.7zm-1.2 0h.8v-.7H87v.7zm-1.3 0h.8v-.7h-.8v.7zm-1.2 0h.8v-.7h-.8v.7zm-1.3 0h.8v-.7h-.8v.7z" class="st1"/><path d="M233.1 35.5c.5-.1.8-.1.8-.1l-.1-.7s-.3.1-.8.1l.1.7zm-1.2.2c.3 0 .6-.1.8-.1l-.1-.7c-.2 0-.5.1-.8.1l.1.7zm-1.3.2c.3 0 .6-.1.8-.1l-.1-.7c-.3 0-.5.1-.8.1l.1.7zm-1.2.2c.3 0 .6-.1.8-.1l-.1-.7c-.3 0-.5.1-.8.1l.1.7zm-1.3.2c.3 0 .6-.1.8-.1l-.1-.7c-.3 0-.5.1-.8.1l.1.7zm-1.2.2c.3 0 .6-.1.8-.1l-.1-.7c-.3 0-.5.1-.8.1l.1.7zm-1.3.2c.3 0 .6-.1.8-.1l-.1-.7c-.3 0-.5.1-.8.1l.1.7zm-1.2.2c.3 0 .6-.1.8-.1l-.1-.7c-.3 0-.5.1-.8.1l.1.7zm-1.3.1c.3 0 .6-.1.8-.1l-.1-.7c-.3 0-.5.1-.8.1l.1.7zm-1.2.2c.3 0 .6-.1.8-.1l-.1-.7c-.3 0-.5.1-.8.1l.1.7zm-1.2.2c.3 0 .6-.1.8-.1l-.1-.7c-.3 0-.5.1-.8.1l.1.7zm-1.3.2c.3 0 .6-.1.8-.1l-.1-.7c-.3 0-.5.1-.8.1l.1.7zm-1.2.1c.3 0 .6-.1.8-.1l-.1-.7c-.3 0-.6.1-.8.1l.1.7zm-1.3.2c.3 0 .6-.1.8-.1l-.1-.7c-.3 0-.6.1-.8.1l.1.7zm-1.2.2c.3 0 .6-.1.8-.1l-.1-.7c-.3 0-.6.1-.8.1l.1.7zm-1.3.2c.3 0 .6-.1.8-.1l-.1-.7c-.3 0-.6.1-.8.1l.1.7zm-1.2.1c.3 0 .6-.1.8-.1l-.1-.7c-.3 0-.6.1-.8.1l.1.7zm-1.3.2c.3 0 .6-.1.8-.1l-.1-.7c-.3 0-.6.1-.8.1l.1.7zm-1.2.2c.3 0 .6-.1.8-.1l-.1-.7c-.3 0-.6.1-.8.1l.1.7zm-1.3.1c.3 0 .6-.1.8-.1l-.1-.7c-.3 0-.6.1-.8.1l.1.7zm-1.2.2c.3 0 .6-.1.8-.1l-.1-.7c-.3 0-.6.1-.8.1l.1.7zm-1.2.2c.3 0 .6-.1.8-.1l-.1-.7c-.3 0-.6.1-.8.1l.1.7zm-1.3.1c.3 0 .6-.1.8-.1l-.1-.7c-.3 0-.6.1-.8.1l.1.7zm-1.2.2c.3 0 .6-.1.8-.1l-.1-.7c-.3 0-.6.1-.8.1l.1.7zm-1.3.1c.3 0 .6-.1.8-.1l-.1-.7c-.3 0-.6.1-.8.1l.1.7zm-1.2.2c.3 0 .6-.1.8-.1l-.1-.7c-.3 0-.6.1-.8.1l.1.7zm-1.3.1c.3 0 .6-.1.8-.1l-.1-.7c-.3 0-.6.1-.8.1l.1.7zm-1.2.2c.3 0 .6-.1.8-.1l-.1-.7c-.3 0-.6.1-.8.1l.1.7zm-1.3.1c.3 0 .6-.1.8-.1l-.1-.7c-.3 0-.6.1-.8.1l.1.7zm-1.2.2c.3 0 .6-.1.8-.1l-.1-.7c-.3 0-.6.1-.8.1l.1.7zm-1.3.1c.3 0 .6-.1.8-.1l-.1-.7c-.3 0-.6.1-.8.1l.1.7zm-1.2.2c.3 0 .6-.1.8-.1l-.1-.7c-.3 0-.6.1-.8.1l.1.7zm-1.3.1c.3 0 .6-.1.8-.1l-.1-.7c-.3 0-.6.1-.8.1l.1.7zm-1.2.2c.3 0 .6-.1.8-.1l-.1-.7c-.3 0-.6.1-.8.1l.1.7zm-1.3.1c.3 0 .6-.1.8-.1l-.1-.7c-.3 0-.6.1-.8.1l.1.7zm-1.2.1c.3 0 .6-.1.8-.1l-.1-.7c-.3 0-.6.1-.8.1l.1.7zm-1.3.2c.3 0 .6-.1.8-.1l-.1-.7c-.3 0-.6.1-.8.1l.1.7zm-1.2.1c.3 0 .6-.1.8-.1l-.1-.7c-.3 0-.6.1-.8.1l.1.7zm-1.3.1c.3 0 .6-.1.8-.1l-.1-.7c-.3 0-.6.1-.8.1l.1.7zm-1.2.2c.3 0 .6-.1.8-.1l-.1-.7c-.3 0-.6.1-.8.1l.1.7zm-1.3.1c.3 0 .6-.1.8-.1l-.1-.7c-.3 0-.6.1-.8.1l.1.7zm-1.2.1c.3 0 .6-.1.8-.1l-.1-.7c-.3 0-.6.1-.8.1l.1.7zm-1.3.1c.3 0 .6-.1.8-.1l-.1-.7c-.3 0-.6.1-.8.1l.1.7zm-1.2.1c.3 0 .6 0 .8-.1l-.1-.7c-.3 0-.6 0-.8.1l.1.7zm-1.3.1c.3 0 .6 0 .8-.1l-.1-.7c-.3 0-.6 0-.8.1l.1.7zm-1.2.1c.3 0 .6 0 .8-.1l-.1-.7c-.3 0-.6 0-.8.1l.1.7zm-1.3.1c.3 0 .6 0 .8-.1l-.1-.7c-.3 0-.6 0-.8.1l.1.7zm-1.2.1c.3 0 .6 0 .8-.1l-.1-.7c-.3 0-.6 0-.8.1l.1.7zm-1.3.1c.3 0 .6 0 .8-.1l-.1-.7c-.3 0-.6 0-.8.1l.1.7zm-1.2.1c.3 0 .6 0 .8-.1v-.7c-.3 0-.6 0-.8.1v.7zm-1.3.1c.3 0 .6 0 .8-.1v-.7c-.3 0-.6 0-.8.1v.7zm-1.2.1c.3 0 .6 0 .8-.1v-.7c-.3 0-.6 0-.8.1v.7zm-1.3 0c.3 0 .6 0 .8 0v-.7c-.3 0-.6 0-.8 0v.7zm-1.3.1c.3 0 .6 0 .8 0v-.7c-.3 0-.6 0-.8 0v.7zm-1.2.1c.3 0 .6 0 .8 0v-.7c-.3 0-.6 0-.8 0v.7zm-1.3 0c.3 0 .6 0 .8 0v-.7c-.3 0-.6 0-.8 0v.7zm-1.2.1c.3 0 .6 0 .8 0v-.7c-.3 0-.6 0-.8 0v.7zm-1.3 0c.3 0 .6 0 .8 0v-.7c-.3 0-.6 0-.8 0v.7zm-1.2 0c.3 0 .6 0 .8 0v-.7c-.3 0-.6 0-.8 0v.7zm-1.3 0c.3 0 .6 0 .8 0v-.7c-.3 0-.6 0-.8 0v.7zm-1.3 0c.1 0 .3 0 .4 0 .1 0 .3 0 .4 0v-.7c-.1 0-.3 0-.4 0-.1 0-.3 0-.4 0v.7zm-1.2 0c.3 0 .6 0 .8 0v-.7c-.3 0-.6 0-.8 0v.7zm-1.3 0c.3 0 .6 0 .8 0v-.7c-.3 0-.6 0-.8 0v.7zm-1.2 0c.3 0 .6 0 .8 0v-.7c-.3 0-.6 0-.8 0v.7zm-1.3-.1c.3 0 .6 0 .8 0v-.7c-.3 0-.6 0-.8 0v.7zm-1.3 0c.3 0 .6 0 .8 0v-.7c-.3 0-.6 0-.8 0v.7zm-1.2-.1c.3 0 .6 0 .8 0v-.7c-.3 0-.6 0-.8 0v.7zm-1.3 0c.3 0 .6 0 .8 0v-.7c-.3 0-.6 0-.8 0v.7zm-1.2-.1c.3 0 .6 0 .8 0v-.7c-.3 0-.6 0-.8 0v.7zm-1.3-.1c.3 0 .6 0 .8.1v-.7c-.3 0-.6 0-.8-.1v.7zm-1.2-.1c.3 0 .6 0 .8.1v-.7c-.3 0-.6 0-.8-.1v.7zm-1.3 0c.3 0 .6 0 .8.1v-.7c-.3 0-.6 0-.8-.1v.7zm-1.2-.1c.3 0 .6 0 .8.1l.1-.7c-.3 0-.6 0-.8-.1l-.1.7zm-1.3-.1c.3 0 .6 0 .8.1l.1-.7c-.3 0-.6 0-.8-.1l-.1.7zm-1.3-.1c.3 0 .6 0 .8.1l.1-.7c-.3 0-.6 0-.8-.1l-.1.7zm-1.2-.1c.3 0 .6 0 .8.1l.1-.7c-.3 0-.6 0-.8-.1l-.1.7zm-1.3-.1c.3 0 .6 0 .8.1l.1-.7c-.3 0-.6 0-.8-.1l-.1.7zm-1.2-.2c.3 0 .6 0 .8.1l.1-.7c-.3 0-.6 0-.8-.1l-.1.7zm-1.3-.1c.3 0 .6.1.8.1l.1-.7c-.3 0-.6-.1-.8-.1l-.1.7zm-1.2-.1c.3 0 .6.1.8.1l.1-.7c-.3 0-.6-.1-.8-.1l-.1.7zm-1.3-.1c.3 0 .6.1.8.1l.1-.7c-.3 0-.6-.1-.8-.1l-.1.7zm-1.2-.1c.3 0 .6.1.8.1l.1-.7c-.3 0-.6-.1-.8-.1l-.1.7zm-1.3-.2c.3 0 .6.1.8.1l.1-.7c-.3 0-.6-.1-.8-.1l-.1.7zm-1.2-.1c.3 0 .6.1.8.1l.1-.7c-.3 0-.6-.1-.8-.1l-.1.7zm-1.3-.1c.3 0 .6.1.8.1l.1-.7c-.3 0-.6-.1-.8-.1l-.1.7zm-1.2-.2c.3 0 .6.1.8.1l.1-.7c-.3 0-.6-.1-.8-.1l-.1.7zm-1.3-.1c.3 0 .6.1.8.1l.1-.7c-.3 0-.6-.1-.8-.1l-.1.7zm-1.2-.1c.3 0 .6.1.8.1l.1-.7c-.3 0-.6-.1-.8-.1l-.1.7zm-1.3-.2c.3 0 .6.1.8.1l.1-.7c-.3 0-.6-.1-.8-.1l-.1.7zm-1.2-.1c.3 0 .6.1.8.1l.1-.7c-.3 0-.6-.1-.8-.1l-.1.7zm-1.3-.2c.3 0 .6.1.8.1l.1-.7c-.3 0-.6-.1-.8-.1l-.1.7zm-1.2-.1c.3 0 .6.1.8.1l.1-.7c-.3 0-.6-.1-.8-.1l-.1.7zm-1.3-.2c.3 0 .6.1.8.1l.1-.7c-.3 0-.6-.1-.8-.1l-.1.7zm-1.2-.1c.3 0 .6.1.8.1l.1-.7c-.3 0-.6-.1-.8-.1l-.1.7zm-1.3-.2c.3 0 .6.1.8.1l.1-.7c-.3 0-.6-.1-.8-.1l-.1.7zm-1.2-.1c.3 0 .6.1.8.1l.1-.7c-.3 0-.6-.1-.8-.1l-.1.7zm-1.2-.2c.3 0 .6.1.8.1l.1-.7c-.3 0-.6-.1-.8-.1l-.1.7zm-1.3-.1c.3 0 .6.1.8.1l.1-.7c-.3 0-.6-.1-.8-.1l-.1.7zm-1.2-.2c.3 0 .6.1.8.1l.1-.7c-.3 0-.6-.1-.8-.1l-.1.7zm-1.3-.1c.3 0 .6.1.8.1l.1-.7c-.3 0-.6-.1-.8-.1l-.1.7zm-1.2-.2c.3 0 .6.1.8.1l.1-.7c-.3 0-.6-.1-.8-.1l-.1.7zm-1.3-.2c.3 0 .6.1.8.1l.1-.7c-.3 0-.6-.1-.8-.1l-.1.7zm-1.2-.1c.3 0 .6.1.8.1l.1-.7c-.3 0-.6-.1-.8-.1l-.1.7zm-1.3-.2c.3 0 .6.1.8.1l.1-.7c-.3 0-.6-.1-.8-.1l-.1.7zm-1.2-.2c.3 0 .6.1.8.1l.1-.7c-.3 0-.6-.1-.8-.1l-.1.7zm-1.3-.2c.3 0 .6.1.8.1l.1-.7c-.3 0-.6-.1-.8-.1l-.1.7zm-1.2-.1c.3 0 .6.1.8.1l.1-.7c-.3 0-.6-.1-.8-.1l-.1.7zm-1.2-.2c.3 0 .6.1.8.1l.1-.7c-.3 0-.6-.1-.8-.1l-.1.7zm-1.3-.2c.3 0 .6.1.8.1l.1-.7c-.3 0-.6-.1-.8-.1l-.1.7zm-1.2-.1c.3 0 .6.1.8.1l.1-.7c-.3 0-.6-.1-.8-.1l-.1.7zm-1.3-.2c.3 0 .5.1.8.1l.1-.7c-.3 0-.6-.1-.8-.1l-.1.7zm-1.2-.2c.3 0 .5.1.8.1l.1-.7c-.3 0-.6-.1-.8-.1l-.1.7zm-1.3-.2c.3 0 .5.1.8.1l.1-.7c-.3 0-.6-.1-.8-.1l-.1.7zm-1.2-.2c.3 0 .5.1.8.1l.1-.7c-.3 0-.6-.1-.8-.1l-.1.7zm-1.3-.2c.3 0 .5.1.8.1l.1-.7c-.3 0-.6-.1-.8-.1l-.1.7zm-1.2-.1c.3 0 .5.1.8.1l.1-.7c-.3 0-.6-.1-.8-.1l-.1.7zm-1.2-.2c.3 0 .5.1.8.1l.1-.7c-.3 0-.6-.1-.8-.1l-.1.7zm-1.3-.2c.3 0 .5.1.8.1l.1-.7c-.3 0-.6-.1-.8-.1l-.1.7zm-1.2-.2c.3 0 .5.1.8.1l.1-.7c-.3 0-.6-.1-.8-.1l-.1.7zm-1.3-.2c.2 0 .5.1.8.1l.1-.7c-.3 0-.6-.1-.8-.1l-.1.7zm-1.2-.2s.3 0 .8.1l.1-.7c-.5-.1-.8-.1-.8-.1l-.1.7zM233 35.3c.5.1.8.1.8.1l.1-.7s-.3-.1-.8-.1l-.1.7zm-1.3-.2c.3 0 .6.1.8.1l.1-.7c-.2 0-.5-.1-.8-.1l-.1.7zm-1.2-.2c.3 0 .6.1.8.1l.1-.7c-.3 0-.5-.1-.8-.1l-.1.7zm-1.2-.2c.3 0 .6.1.8.1l.1-.7c-.3 0-.5-.1-.8-.1l-.1.7zm-1.3-.2c.3 0 .6.1.8.1l.1-.7c-.3 0-.5-.1-.8-.1l-.1.7zm-1.2-.2c.3 0 .6.1.8.1l.1-.7c-.3 0-.5-.1-.8-.1l-.1.7zm-1.3-.2c.3 0 .6.1.8.1l.1-.7c-.3 0-.5-.1-.8-.1l-.1.7zm-1.2-.2c.3 0 .6.1.8.1l.1-.7c-.3 0-.5-.1-.8-.1l-.1.7zm-1.3-.1c.3 0 .6.1.8.1l.1-.7c-.3 0-.5-.1-.8-.1l-.1.7zm-1.2-.2c.3 0 .6.1.8.1l.1-.7c-.3 0-.5-.1-.8-.1l-.1.7zm-1.2-.2c.3 0 .6.1.8.1l.1-.7c-.3 0-.5-.1-.8-.1l-.1.7zm-1.3-.2c.3 0 .6.1.8.1l.1-.7c-.3 0-.6-.1-.8-.1l-.1.7zm-1.2-.1c.3 0 .6.1.8.1l.1-.7c-.3 0-.6-.1-.8-.1l-.1.7zm-1.3-.2c.3 0 .6.1.8.1l.1-.7c-.3 0-.6-.1-.8-.1l-.1.7zm-1.2-.2c.3 0 .6.1.8.1l.1-.7c-.3 0-.6-.1-.8-.1l-.1.7zm-1.3-.2c.3 0 .6.1.8.1l.1-.7c-.3 0-.6-.1-.8-.1l-.1.7zm-1.2-.1c.3 0 .6.1.8.1l.1-.7c-.3 0-.6-.1-.8-.1l-.1.7zm-1.3-.2c.3 0 .6.1.8.1l.1-.7c-.3 0-.6-.1-.8-.1l-.1.7zm-1.2-.2c.3 0 .6.1.8.1l.1-.7c-.3 0-.6-.1-.8-.1l-.1.7zm-1.2-.1c.3 0 .6.1.8.1l.1-.7c-.3 0-.6-.1-.8-.1l-.1.7zm-1.3-.2c.3 0 .6.1.8.1l.1-.7c-.3 0-.6-.1-.8-.1l-.1.7zm-1.2-.2c.3 0 .6.1.8.1l.1-.7c-.3 0-.6-.1-.8-.1l-.1.7zm-1.3-.1c.3 0 .6.1.8.1l.1-.7c-.3 0-.6-.1-.8-.1l-.1.7zm-1.2-.2c.3 0 .6.1.8.1l.1-.7c-.3 0-.6-.1-.8-.1l-.1.7zm-1.3-.1c.3 0 .6.1.8.1l.1-.7c-.3 0-.6-.1-.8-.1l-.1.7zm-1.2-.2c.3 0 .6.1.8.1l.1-.7c-.3 0-.6-.1-.8-.1l-.1.7zm-1.3-.1c.3 0 .6.1.8.1l.1-.7c-.3 0-.6-.1-.8-.1l-.1.7zm-1.2-.2c.3 0 .6.1.8.1l.1-.7c-.3 0-.6-.1-.8-.1l-.1.7zm-1.3-.1c.3 0 .6.1.8.1l.1-.7c-.3 0-.6-.1-.8-.1l-.1.7zm-1.2-.2c.3 0 .6.1.8.1l.1-.7c-.3 0-.6-.1-.8-.1l-.1.7zm-1.2-.1c.3 0 .6.1.8.1l.1-.7c-.3 0-.6-.1-.8-.1l-.1.7zm-1.3-.2c.3 0 .6.1.8.1l.1-.7c-.3 0-.6-.1-.8-.1l-.1.7zm-1.2-.1c.3 0 .6.1.8.1l.1-.7c-.3 0-.6-.1-.8-.1l-.1.7zm-1.3-.2c.3 0 .6.1.8.1l.1-.7c-.3 0-.6-.1-.8-.1l-.1.7zm-1.2-.1c.3 0 .6.1.8.1l.1-.7c-.3 0-.6-.1-.8-.1l-.1.7zm-1.3-.1c.3 0 .6.1.8.1l.1-.7c-.3 0-.6-.1-.8-.1l-.1.7zm-1.2-.2c.3 0 .6.1.8.1l.1-.7c-.3 0-.6-.1-.8-.1l-.1.7zm-1.3-.1c.3 0 .6.1.8.1l.1-.7c-.3 0-.6-.1-.8-.1l-.1.7zm-1.2-.1c.3 0 .6.1.8.1l.1-.7c-.3 0-.6-.1-.8-.1l-.1.7zm-1.3-.1c.3 0 .6.1.8.1l.1-.7c-.3 0-.6-.1-.8-.1l-.1.7zm-1.2-.2c.3 0 .6.1.8.1l.1-.7c-.3 0-.6-.1-.8-.1l-.1.7zm-1.3-.1c.3 0 .6.1.8.1l.1-.7c-.3 0-.6-.1-.8-.1l-.1.7zm-1.2-.1c.3 0 .6.1.8.1l.1-.7c-.3 0-.6-.1-.8-.1l-.1.7zm-1.3-.1c.3 0 .6 0 .8.1l.1-.7c-.3 0-.6 0-.8-.1l-.1.7zm-1.2-.1c.3 0 .6 0 .8.1l.1-.7c-.3 0-.6 0-.8-.1l-.1.7zm-1.3-.1c.3 0 .6 0 .8.1l.1-.7c-.3 0-.6 0-.8-.1l-.1.7zm-1.2-.1c.3 0 .6 0 .8.1l.1-.7c-.3 0-.6 0-.8-.1l-.1.7zm-1.3-.1c.3 0 .6 0 .8.1l.1-.7c-.3 0-.6 0-.8-.1l-.1.7zm-1.2-.1c.3 0 .6 0 .8.1l.1-.7c-.3 0-.6 0-.8-.1l-.1.7zm-1.3-.1c.3 0 .6 0 .8.1v-.7c-.3 0-.6 0-.8-.1v.7zm-1.2-.1c.3 0 .6 0 .8.1v-.7c-.3 0-.6 0-.8-.1v.7zm-1.3-.1c.3 0 .6 0 .8.1v-.7c-.3 0-.6 0-.8-.1v.7zm-1.2 0c.3 0 .6 0 .8 0V27c-.3 0-.6 0-.8 0v.7zm-1.3-.1c.3 0 .6 0 .8 0v-.7c-.3 0-.6 0-.8 0v.7zm-1.2-.1c.3 0 .6 0 .8 0v-.7c-.3 0-.6 0-.8 0v.7zm-1.3 0c.3 0 .6 0 .8 0v-.7c-.3 0-.6 0-.8 0v.7zm-1.3-.1c.3 0 .6 0 .8 0v-.7c-.3 0-.6 0-.8 0v.7zm-1.2 0c.3 0 .6 0 .8 0v-.7c-.3 0-.6 0-.8 0v.7zm-1.3 0c.3 0 .6 0 .8 0v-.7c-.3 0-.6 0-.8 0v.7zm-1.2 0c.3 0 .6 0 .8 0v-.7c-.3 0-.6 0-.8 0v.7zm-1.3 0c.1 0 .3 0 .4 0 .1 0 .3 0 .4 0v-.7c-.1 0-.3 0-.4 0-.1 0-.3 0-.4 0v.7zm-1.2 0c.3 0 .6 0 .8 0v-.7c-.3 0-.6 0-.8 0v.7zm-1.3 0c.3 0 .6 0 .8 0v-.7c-.3 0-.6 0-.8 0v.7zm-1.2 0c.3 0 .6 0 .8 0v-.7c-.3 0-.6 0-.8 0v.7zm-1.3.1c.3 0 .6 0 .8 0v-.7c-.3 0-.6 0-.8 0v.7zm-1.2 0c.3 0 .6 0 .8 0v-.7c-.3 0-.6 0-.8 0v.7zm-1.3.1c.3 0 .6 0 .8 0v-.7c-.3 0-.6 0-.8 0v.7zm-1.2 0c.3 0 .6 0 .8 0v-.7c-.3 0-.6 0-.8 0v.7zm-1.3.1c.3 0 .6 0 .8 0V27c-.3 0-.6 0-.8 0v.7zm-1.2.1c.3 0 .6 0 .8-.1V27c-.3 0-.6 0-.8.1v.7zm-1.3.1c.3 0 .6 0 .8-.1v-.7c-.3 0-.6 0-.8.1v.7zm-1.2.1c.3 0 .6 0 .8-.1v-.7c-.3 0-.6 0-.8.1v.7zm-1.3 0c.3 0 .6 0 .8-.1l-.1-.7c-.3 0-.6 0-.8.1l.1.7zm-1.2.1c.3 0 .6 0 .8-.1l-.1-.7c-.3 0-.6 0-.8.1l.1.7zm-1.3.1c.3 0 .6 0 .8-.1l-.1-.7c-.3 0-.6 0-.8.1l.1.7zm-1.2.1c.3 0 .6 0 .8-.1l-.1-.7c-.3 0-.6 0-.8.1l.1.7zm-1.3.2c.3 0 .6 0 .8-.1l-.1-.7c-.3 0-.6 0-.8.1l.1.7zm-1.3.1c.3 0 .6 0 .8-.1l-.1-.7c-.3 0-.6 0-.8.1l.1.7zm-1.2.1c.3 0 .6-.1.8-.1l-.1-.7c-.3 0-.6.1-.8.1l.1.7zm-1.2.1c.3 0 .6-.1.8-.1l-.1-.7c-.3 0-.6.1-.8.1l.1.7zm-1.3.1c.3 0 .6-.1.8-.1l-.1-.7c-.3 0-.6.1-.8.1l.1.7zm-1.2.1c.3 0 .6-.1.8-.1l-.1-.7c-.3 0-.6.1-.8.1l.1.7zm-1.3.2c.3 0 .6-.1.8-.1l-.1-.7c-.3 0-.6.1-.8.1l.1.7zm-1.2.1c.3 0 .6-.1.8-.1l-.1-.7c-.3 0-.6.1-.8.1l.1.7zm-1.3.1c.3 0 .6-.1.8-.1l-.1-.7c-.3 0-.6.1-.8.1l.1.7zm-1.2.2c.3 0 .6-.1.8-.1l-.1-.7c-.3 0-.6.1-.8.1l.1.7zm-1.3.1c.3 0 .6-.1.8-.1l-.1-.7c-.3 0-.6.1-.8.1l.1.7zm-1.2.1c.3 0 .6-.1.8-.1l-.1-.7c-.3 0-.6.1-.8.1l.1.7zm-1.3.2c.3 0 .6-.1.8-.1l-.1-.7c-.3 0-.6.1-.8.1l.1.7zm-1.2.1c.3 0 .6-.1.8-.1l-.1-.7c-.3 0-.6.1-.8.1l.1.7zm-1.3.2c.3 0 .6-.1.8-.1l-.1-.7c-.3 0-.6.1-.8.1l.1.7zm-1.2.1c.3 0 .6-.1.8-.1l-.1-.7c-.3 0-.6.1-.8.1l.1.7zm-1.3.2c.3 0 .6-.1.8-.1l-.1-.7c-.3 0-.6.1-.8.1l.1.7zm-1.2.1c.3 0 .6-.1.8-.1l-.1-.7c-.3 0-.6.1-.8.1l.1.7zm-1.3.2c.3 0 .6-.1.8-.1l-.1-.7c-.3 0-.6.1-.8.1l.1.7zm-1.2.1c.3 0 .6-.1.8-.1l-.1-.7c-.3 0-.6.1-.8.1l.1.7zm-1.3.2c.3 0 .6-.1.8-.1l-.1-.7c-.3 0-.6.1-.8.1l.1.7zm-1.2.1c.3 0 .6-.1.8-.1l-.1-.7c-.3 0-.6.1-.8.1l.1.7zm-1.2.2c.3 0 .6-.1.8-.1l-.1-.7c-.3 0-.6.1-.8.1l.1.7zm-1.3.1c.3 0 .6-.1.8-.1l-.1-.7c-.3 0-.6.1-.8.1l.1.7zm-1.2.2c.3 0 .6-.1.8-.1l-.1-.7c-.3 0-.6.1-.8.1l.1.7zm-1.3.2c.3 0 .6-.1.8-.1l-.1-.7c-.3 0-.6.1-.8.1l.1.7zm-1.2.1c.3 0 .6-.1.8-.1l-.1-.7c-.3 0-.6.1-.8.1l.1.7zm-1.3.2c.3 0 .6-.1.8-.1l-.1-.7c-.3 0-.6.1-.8.1l.1.7zm-1.2.2c.3 0 .6-.1.8-.1l-.1-.7c-.3 0-.6.1-.8.1l.1.7zm-1.3.2c.3 0 .6-.1.8-.1l-.1-.7c-.3 0-.6.1-.8.1l.1.7zm-1.2.1c.3 0 .6-.1.8-.1l-.1-.7c-.3 0-.6.1-.8.1l.1.7zm-1.2.2c.3 0 .6-.1.8-.1l-.1-.7c-.3 0-.6.1-.8.1l.1.7zm-1.3.2c.3 0 .6-.1.8-.1l-.1-.7c-.3 0-.6.1-.8.1l.1.7zm-1.2.2c.3 0 .5-.1.8-.1l-.1-.7c-.3 0-.6.1-.8.1l.1.7zm-1.3.1c.3 0 .5-.1.8-.1l-.1-.7c-.3 0-.6.1-.8.1l.1.7zm-1.2.2c.3 0 .5-.1.8-.1l-.1-.7c-.3 0-.6.1-.8.1l.1.7zm-1.3.2c.3 0 .5-.1.8-.1v-.7c-.3 0-.6.1-.8.1v.7zm-1.2.2c.3 0 .5-.1.8-.1l-.1-.7c-.3 0-.6.1-.8.1l.1.7zm-1.3.2c.3 0 .5-.1.8-.1l-.1-.7c-.3 0-.6.1-.8.1l.1.7zm-1.2.1c.3 0 .5-.1.8-.1l-.1-.7c-.3 0-.6.1-.8.1l.1.7zm-1.2.2c.3 0 .5-.1.8-.1l-.1-.7c-.3 0-.6.1-.8.1l.1.7zm-1.3.2c.3 0 .5-.1.8-.1l-.1-.7c-.3 0-.6.1-.8.1l.1.7zm-1.2.2c.3 0 .5-.1.8-.1l-.1-.7c-.3 0-.6.1-.8.1l.1.7zm-1.3.2c.2 0 .5-.1.8-.1l-.1-.7c-.3 0-.6.1-.8.1l.1.7zm-1.2.2s.3 0 .8-.1l-.1-.7c-.5.1-.8.1-.8.1l.1.7z" class="st2"/><path d="M0 53.5h237.2v10H0z" class="st3"/><path d="M240.2 41.8v67.3h.7V41.8" class="st4"/><path d="M83.3 35.4s.8-.2 2.2-.6c9.9-2.6 50.8-12.8 73.1-12.8 12.7 0 31.5 3.3 47.2 6.7 7.8 1.7 14.8 3.3 19.9 4.6 2.5.6 4.6 1.2 6 1.5 1.4.4 2.2.6 2.2.6l.2-.7S221.6 31.3 206 28c-15.7-3.3-34.5-6.7-47.3-6.7-12.8 0-31.6 3.4-47.3 6.7-15.7 3.3-28.1 6.7-28.1 6.7v.7zM233.8 34.7s-.8.2-2.2.6c-9.9 2.6-50.8 12.8-73 12.8-12.7 0-31.5-3.3-47.2-6.7-7.8-1.7-14.8-3.3-19.9-4.6-2.5-.6-4.6-1.2-6-1.5-1.4-.4-2.2-.6-2.2-.6l-.2.7s12.5 3.4 28.1 6.7c15.7 3.3 34.5 6.7 47.3 6.7 12.8 0 31.6-3.4 47.3-6.7 15.7-3.3 28.1-6.7 28.1-6.7l-.1-.7z" class="st4"/><path d="M12.9 20h63.6v33.5H12.9z" class="st5"/><path d="M76.5 35.4h6.7v-.7h-6.7" class="st4"/><path d="M233.9 109.1h13.4v16.7h-13.4z" class="st6"/><path d="M233.8 47.4v6.1h1v-6.1" class="st7"/><path d="M22.7 29.7h34.7v12.5H22.7z" class="st8"/><path d="M38.6 37v.5H38v1.2h-.6v-1.2h-2V37l1.4-3.1.5.2-1.2 2.9h1.3l.1-1.3h.5V37h.6zM42.3 37v.5h-.6v1.2h-.6v-1.2h-2V37l1.4-3.1.5.2-1.2 2.9h1.3l.1-1.3h.6V37h.5zM45.7 34.5c.3.4.4 1 .4 1.8s-.1 1.4-.4 1.8c-.3.4-.7.6-1.2.6s-.9-.2-1.2-.6c-.3-.4-.4-1-.4-1.8s.1-1.4.4-1.8c.3-.4.7-.6 1.2-.6s.9.2 1.2.6zm-1.9.3c-.1.3-.2.8-.2 1.5s.1 1.2.2 1.5c.1.3.4.5.7.5.3 0 .5-.2.7-.5.1-.3.2-.8.2-1.5s-.1-1.2-.2-1.5c-.1-.3-.4-.5-.7-.5-.3.1-.5.2-.7.5zM65.3 38.6v-2.3h-2v2.3h-.7v-4.8h.7v2h2v-2h.7v4.8h-.7zM69.5 34.9v.5l-1.9 2.7h1.9l-.1.5h-2.6v-.5l1.9-2.7H67v-.5h2.5z" class="st9"/><defs><path id="SVGID_1_" d="M81.9 3.6H3.6v5.7h78.3V3.6"/></defs><clipPath id="SVGID_2_"><use xlink:href="#SVGID_1_" overflow="visible"/></clipPath><g class="st10"><path d="M6.5 4.5c.2.1.5.2.7.4l-.4.4c-.2-.2-.4-.3-.5-.3-.2-.1-.4-.1-.6-.1-.2 0-.4.1-.7.2-.2.1-.3.3-.5.6s-.2.7-.2 1.1c0 .7.1 1.2.3 1.5.2.3.5.5 1 .5.4 0 .7-.1.9-.2V7.1h-.8l-.1-.5h1.6v2.3c-.5.3-1 .4-1.6.4-.6 0-1.1-.2-1.4-.6-.4-.4-.5-1-.5-1.9 0-.5.1-1 .3-1.3.2-.4.4-.7.8-.9.3-.2.7-.3 1-.3.2 0 .5.1.7.2zM11.1 7.6H8.7c0 .4.1.7.3.9.2.2.4.3.7.3.2 0 .3 0 .5-.1s.3-.1.5-.2l.3.4c-.4.3-.8.5-1.3.5s-.9-.2-1.2-.5c-.3-.4-.4-.9-.4-1.5 0-.4.1-.7.2-1 .1-.3.3-.5.5-.7.2-.1.5-.2.8-.2.5 0 .9.2 1.1.5.3.3.4.8.4 1.3 0 .1 0 .2 0 .3zm-.6-.5c0-.4-.1-.6-.2-.8S9.9 6 9.6 6c-.5 0-.8.4-.9 1.1h1.8zm-.3-3.5l.3.5-1.5.7-.2-.4 1.4-.8zM14.7 5.8c.2.2.3.5.3.8v2.6h-.6V6.7c0-.3 0-.4-.1-.6-.2-.1-.4-.1-.6-.1-.2 0-.4.1-.5.2-.1.1-.3.3-.4.5v2.6h-.6V5.6h.6l.1.5c.1-.2.3-.4.5-.5.2-.1.4-.2.6-.2.2.1.5.2.7.4zM19 7.6h-2.4c0 .4.1.7.3.9.2.2.4.3.7.3.2 0 .3 0 .5-.1s.3-.1.5-.2l.3.4c-.4.3-.8.5-1.3.5s-.9-.2-1.2-.5c-.3-.4-.4-.9-.4-1.5 0-.4.1-.7.2-1 .1-.3.3-.5.5-.7.2-.2.5-.3.8-.3.5 0 .9.2 1.1.5.3.4.4.8.4 1.4 0 .1 0 .2 0 .3zm-.6-.5c0-.4-.1-.6-.2-.8s-.4-.3-.7-.3c-.5 0-.8.4-.9 1.2l1.8-.1zm-.3-3.5l.3.5-1.5.6-.2-.3 1.4-.8zM22 5.5l-.1.6c-.1 0-.2 0-.3 0-.2 0-.4.1-.6.3-.1.2-.2.4-.3.8v2.1h-.6V5.6h.6l.1.7c.1-.3.2-.5.4-.6s.4-.2.6-.2c0 0 .1 0 .2 0zM25.1 8.7c.1.1.1.1.2.2l-.1.4c-.2 0-.3-.1-.5-.2-.1-.1-.2-.2-.3-.4-.2.4-.6.6-1.1.6-.4 0-.7-.1-.9-.3-.2-.2-.3-.5-.3-.8 0-.4.1-.7.4-.9s.8-.3 1.3-.3h.6v-.3c0-.3-.1-.4-.2-.6-.1 0-.3-.1-.6-.1s-.6.1-1 .2l-.2-.5c.5-.2.9-.3 1.3-.3s.8.1 1 .3.3.6.3 1v1.7c0 .1 0 .2.1.3zm-.7-.4v-.9h-.5c-.7 0-1 .3-1 .8 0 .2.1.4.2.5.1.1.3.2.5.2.3 0 .6-.2.8-.6zM28.2 9.1c-.2.2-.5.3-.8.3-.3 0-.6-.1-.7-.3s-.3-.4-.3-.8V6.1h-.6v-.5h.6v-.9l.6-.1v.9h.9l-.1.5H27v2.2c0 .2 0 .3.1.4.1.1.2.1.3.1.1 0 .3 0 .5-.1l.3.5zM31.5 7.6h-2.4c0 .4.1.7.3.9.2.2.4.3.7.3.2 0 .3 0 .5-.1s.3-.1.5-.2l.3.4c-.4.3-.8.5-1.3.5s-.9-.2-1.2-.5c-.3-.3-.4-.8-.4-1.4 0-.4.1-.7.2-1 .1-.3.3-.5.5-.7.2-.2.5-.3.8-.3.5 0 .9.2 1.1.5.3.3.4.8.4 1.3 0 .1 0 .2 0 .3zm-.6-.5c0-.4-.1-.6-.2-.8S30.3 6 30 6c-.5 0-.8.4-.9 1.2l1.8-.1zM35.3 9.2h-.6v-.6c-.1.2-.3.4-.5.5-.2.1-.4.2-.7.2-.3 0-.6-.1-.8-.3-.2-.2-.3-.5-.3-.8V5.6h.6v2.6c0 .3 0 .4.1.5.1.1.2.2.4.2.4 0 .7-.2.9-.6V5.6h.6v3.6zM38.6 5.5l-.1.6c-.1 0-.2 0-.3 0-.2 0-.4.1-.6.3-.1.2-.2.4-.3.8v2.1h-.6V5.6h.6l.1.7c.1-.3.2-.5.4-.6s.4-.2.6-.2c0 0 .1 0 .2 0zM44.1 4.1v5.2h-.6l-.1-.5c-.1.2-.3.3-.5.4-.2.1-.4.2-.6.2-.4 0-.8-.2-1-.5-.2-.4-.3-.9-.3-1.5 0-.4.1-.7.2-1 .1-.3.3-.5.5-.7.2-.2.5-.2.8-.2.4 0 .7.2 1 .5V4l.6.1zM43 8.7c.1-.1.3-.2.4-.4V6.5c-.1-.2-.3-.3-.4-.4-.1-.1-.3-.1-.4-.1-.3 0-.5.1-.7.4-.2.2-.2.6-.2 1.1 0 .5.1.8.2 1.1s.4.4.6.4c.2-.2.4-.2.5-.3zM48.2 7.6h-2.4c0 .4.1.7.3.9.2.2.4.3.7.3.2 0 .3 0 .5-.1s.3-.1.5-.2l.2.4c-.4.3-.8.5-1.3.5s-.9-.2-1.2-.5c-.3-.3-.4-.8-.4-1.4 0-.4.1-.7.2-1 .1-.3.3-.5.5-.7.2-.2.5-.3.8-.3.5 0 .9.2 1.1.5.3.3.4.8.4 1.3.1.1.1.2.1.3zm-.7-.5c0-.4-.1-.6-.2-.8S47 6 46.7 6c-.5 0-.8.4-.9 1.2l1.7-.1zM53.8 5.6l-1.3 3.7h-.8l-1.3-3.7h.7l1 3.1 1-3.1h.7zM55.1 3.9c.1.1.1.2.1.3s0 .2-.1.3-.1.2-.3.2c-.1 0-.2 0-.3-.1s-.1-.2-.1-.3 0-.2.1-.3.2-.1.3-.1c.2-.1.3-.1.3 0zm0 1.7v3.7h-.6V5.6h.6zM59.2 6c.2.3.4.8.4 1.4 0 .4-.1.7-.2 1-.1.3-.3.5-.5.7-.2.2-.5.2-.8.2-.4 0-.7-.2-1-.5l-.1.4h-.6V4.1l.7-.1v2c.3-.4.6-.5 1-.5.5 0 .8.1 1.1.5zm-.6 2.5c.2-.2.2-.6.2-1.1 0-.5-.1-.9-.2-1.1-.1-.2-.3-.3-.6-.3s-.6.2-.9.6v1.8c.1.2.2.3.4.4.1.1.3.1.5.1.2-.1.4-.2.6-.4zM62.6 5.5l-.1.6c-.1 0-.2 0-.3 0-.2 0-.4.1-.6.3-.1.2-.2.4-.3.8v2.1h-.6V5.6h.6l.1.7c.1-.3.2-.5.4-.6s.4-.2.6-.2c0 0 .1 0 .2 0zM65.7 8.7c.1.1.1.1.2.2l-.1.4c-.2 0-.3-.1-.5-.2-.1 0-.2-.1-.3-.3-.2.4-.6.6-1.1.6-.4 0-.7-.1-.9-.3-.2-.2-.3-.5-.3-.8 0-.4.1-.7.4-.9s.8-.4 1.3-.4h.6v-.3c0-.3-.1-.4-.2-.6-.2 0-.4-.1-.6-.1-.3 0-.6.1-1 .2l-.2-.5c.5-.2.9-.3 1.3-.3s.8.1 1 .3.3.5.3.9v1.7c0 .2 0 .3.1.4zm-.8-.4v-.9h-.5c-.7 0-1 .3-1 .8 0 .2.1.4.2.5.1.1.3.2.5.2.3 0 .6-.2.8-.6zM68.8 9.1c-.2.2-.5.3-.8.3-.3 0-.6-.1-.7-.3s-.3-.4-.3-.8V6.1h-.6v-.5h.6v-.9l.6-.1v.9h.9l-.1.5h-.8v2.2c0 .2 0 .3.1.4.1.1.2.1.3.1.1 0 .3 0 .5-.1l.3.5zM70.1 3.9c.1.1.1.2.1.3s0 .2-.1.3-.2.1-.3.1c-.1 0-.2 0-.3-.1s-.1-.2-.1-.3 0-.2.1-.3.2-.1.3-.1c.1 0 .2 0 .3.1zm0 1.7v3.7h-.6V5.6h.6zM74 6c.3.3.4.8.4 1.4 0 .4-.1.7-.2 1s-.3.5-.6.7c-.2.2-.5.2-.9.2-.5 0-.9-.2-1.2-.5-.3-.3-.4-.8-.4-1.4 0-.4.1-.7.2-1s.3-.5.6-.7c.2-.2.5-.2.9-.2.5 0 .9.1 1.2.5zm-2.2 1.4c0 .9.3 1.4 1 1.4s1-.5 1-1.4c0-.9-.3-1.4-.9-1.4-.7 0-1.1.5-1.1 1.4zM78 5.8c.2.2.3.5.3.8v2.6h-.6V6.7c0-.3 0-.4-.1-.6-.2-.1-.3-.1-.5-.1s-.4.1-.5.2c-.1.1-.3.3-.4.5v2.6h-.6V5.6h.4l.1.5c.1-.2.3-.4.5-.5.2-.1.4-.2.6-.2.4.1.6.2.8.4zM81.3 5.6c.2.1.4.2.6.3l-.3.4c-.2-.1-.3-.2-.5-.2-.2-.1-.3-.1-.5-.1s-.4 0-.5.1c-.1.1-.2.2-.2.4s.1.3.2.3.3.2.6.2c.4.1.7.2.9.4.3.3.4.5.4.8 0 .4-.1.6-.4.8s-.6.3-1 .3c-.6 0-1-.2-1.4-.5l.3-.4c.3.2.7.4 1 .4.2 0 .4 0 .6-.2.1-.1.2-.2.2-.4 0-.1 0-.2-.1-.3-.1-.1-.1-.1-.3-.2-.1-.1-.3-.1-.6-.2-.4-.1-.7-.2-.9-.4-.2-.2-.3-.4-.3-.7 0-.2.1-.4.2-.5.1-.2.3-.3.5-.4s.4-.1.7-.1.6.1.8.2z" class="st11"/></g><defs><path id="SVGID_3_" d="M180.1 3.8h-45.7v5.5h45.7V3.8"/></defs><clipPath id="SVGID_4_"><use xlink:href="#SVGID_3_" overflow="visible"/></clipPath><g class="st12"><path d="M137.2 4.5c.2.1.4.2.6.4l-.4.4c-.3-.2-.6-.4-.9-.4-.4 0-.7.2-1 .5-.2.3-.4.8-.4 1.5s.1 1.2.4 1.5c.2.3.6.5 1 .5.2 0 .4 0 .5-.1s.3-.2.5-.3l.3.4c-.1.2-.3.3-.6.4s-.5.2-.8.2c-.4 0-.7-.1-1-.3-.3-.2-.5-.5-.7-.9-.2-.4-.3-.8-.3-1.4s.1-1 .3-1.4c.2-.4.4-.7.7-.9s.6-.3 1-.3c.3 0 .6.1.8.2zM141.1 6c.3.3.4.8.4 1.4 0 .4-.1.7-.2 1s-.3.5-.6.7c-.2.2-.5.2-.9.2-.5 0-.9-.2-1.2-.5-.3-.3-.4-.8-.4-1.4 0-.4.1-.7.2-1s.3-.5.6-.7c.2-.2.5-.2.9-.2.5 0 .9.1 1.2.5zm-2.2 1.4c0 .9.3 1.4 1 1.4s1-.5 1-1.4c0-.9-.3-1.4-.9-1.4-.7 0-1.1.5-1.1 1.4zM144.6 5.5l-.1.6c-.1 0-.2 0-.3 0-.2 0-.4.1-.6.3s-.2.4-.3.8v2.1h-.6V5.6h.6l.1.7c.1-.3.2-.5.4-.6s.4-.2.6-.2c-.1 0 0 0 .2 0zM147.9 4.1v5.2h-.6l-.1-.5c-.1.2-.3.3-.5.4-.2.1-.4.2-.6.2-.4 0-.8-.2-1-.5-.2-.3-.4-.8-.4-1.4 0-.4.1-.7.2-1 .1-.3.3-.5.5-.7.2-.2.5-.2.8-.2.4 0 .7.2 1 .5V4l.7.1zm-1 4.6c.1-.1.3-.2.4-.4V6.5c-.1-.2-.3-.3-.4-.4-.1-.1-.3-.1-.4-.1-.3 0-.5.1-.7.4-.2.2-.2.6-.2 1.1 0 .5.1.8.2 1.1s.4.4.6.4c.2-.2.4-.2.5-.3zM152 7.6h-2.4c0 .4.1.7.3.9s.4.3.7.3c.2 0 .3 0 .5-.1s.3-.1.5-.2l.3.4c-.4.3-.8.5-1.3.5s-.9-.2-1.2-.5c-.2-.4-.4-.9-.4-1.5 0-.4.1-.7.2-1 .1-.3.3-.5.5-.7.2-.2.5-.3.8-.3.5 0 .9.2 1.1.5.3.3.4.8.4 1.3.1.2.1.3 0 .4zm-.6-.5c0-.4-.1-.6-.2-.8s-.4-.3-.6-.3c-.5 0-.8.4-.9 1.2l1.7-.1zM157.7 5.6l-1.3 3.7h-.8l-1.3-3.7h.7l1 3.1 1-3.1h.7zM159 3.9c.1.1.1.2.1.3s0 .2-.1.3-.2.1-.3.1c-.1 0-.2 0-.3-.1s-.1-.2-.1-.3 0-.2.1-.3.2-.1.3-.1c.1 0 .3 0 .3.1zm0 1.7v3.7h-.6V5.6h.6zM163.1 6c.2.3.4.8.4 1.4 0 .4-.1.7-.2 1s-.3.5-.5.7c-.2.2-.5.2-.8.2-.4 0-.7-.2-1-.5l-.1.4h-.6V4.1l.7-.1v2c.3-.4.6-.5 1-.5.5 0 .8.1 1.1.5zm-.6 2.5c.2-.2.2-.6.2-1.1 0-.5-.1-.9-.2-1.1-.2-.2-.4-.3-.6-.3-.3 0-.6.2-.9.6v1.8c.1.2.2.3.4.4.1.1.3.1.5.1.2-.1.4-.2.6-.4zM166.5 5.5l-.1.6c-.1 0-.2 0-.3 0-.2 0-.4.1-.6.3-.1.2-.2.4-.3.8v2.1h-.6V5.6h.6l.1.7c.1-.3.2-.5.4-.6s.4-.2.6-.2c0 0 .1 0 .2 0zM169.5 8.7c.1.1.1.1.2.2l-.1.4c-.2 0-.3-.1-.5-.2s-.1-.1-.2-.3c-.2.4-.6.6-1.1.6-.4 0-.7-.1-.9-.3-.2-.2-.3-.5-.3-.8 0-.4.1-.7.4-.9.3-.2.7-.3 1.2-.3h.6v-.4c0-.3-.1-.4-.2-.6-.1-.1-.3-.2-.6-.2s-.6.1-1 .2l-.2-.5c.5-.2.9-.3 1.3-.3s.8.1 1 .3.3.5.3.9v1.7c.1.3.1.4.1.5zm-.7-.4v-.9h-.5c-.7 0-1 .3-1 .8 0 .2.1.4.2.5.1.1.3.2.5.2.3 0 .6-.2.8-.6zM173.3 5.8c.2.2.3.5.3.8v2.6h-.6V6.7c0-.3 0-.4-.1-.6-.2-.1-.3-.1-.5-.1s-.4.1-.5.2c-.1.1-.3.3-.4.5v2.6h-.6V5.6h.6l.1.5c.1-.2.3-.4.5-.5s.4-.2.6-.2c.2.1.4.2.6.4zM176.8 9.1c-.2.2-.5.3-.8.3-.3 0-.6-.1-.7-.3-.2-.2-.3-.4-.3-.8V6.1h-.6v-.5h.6v-.9l.6-.1v.9h.9l-.1.5h-.8v2.2c0 .2 0 .3.1.4.1.1.2.1.3.1.1 0 .3 0 .5-.1l.3.5zM180.1 7.6h-2.4c0 .4.1.7.3.9.2.2.4.3.7.3.2 0 .3 0 .5-.1.1-.1.3-.1.5-.2l.3.4c-.4.3-.8.5-1.3.5s-.9-.2-1.2-.5-.4-.8-.4-1.4c0-.4.1-.7.2-1 .1-.3.3-.5.5-.7s.5-.3.8-.3c.5 0 .9.2 1.1.5.3.3.4.8.4 1.3 0 .1 0 .2 0 .3zm-.6-.5c0-.4-.1-.6-.2-.8s-.4-.3-.7-.3c-.5 0-.8.4-.9 1.2l1.8-.1z" class="st11"/></g><defs><path id="SVGID_5_" d="M282 38.7h-18.8v5.6H282v-5.6"/></defs><clipPath id="SVGID_6_"><use xlink:href="#SVGID_5_" overflow="visible"/></clipPath><g class="st13"><path d="M265.9 39.8c.3.2.5.6.5 1.1 0 .5-.2.9-.5 1.2-.3.3-.8.4-1.4.4h-.6v1.8h-.7v-4.8h1.3c.6-.1 1 0 1.4.3zm-.6 1.9c.2-.1.3-.4.3-.8 0-.3-.1-.6-.3-.7-.2-.2-.5-.2-.9-.2h-.6v2h.6c.4-.1.7-.2.9-.3zM269.6 40.9c.3.3.4.8.4 1.4 0 .4-.1.7-.2 1s-.3.5-.6.7c-.2.2-.5.2-.9.2-.5 0-.9-.2-1.2-.5-.3-.3-.4-.8-.4-1.4 0-.4.1-.7.2-1s.3-.5.6-.7c.2-.2.5-.2.9-.2.5 0 .9.2 1.2.5zm-2.1 1.5c0 .9.3 1.4 1 1.4s1-.5 1-1.4c0-.9-.3-1.4-.9-1.4-.8-.1-1.1.4-1.1 1.4zM273.9 44.2h-.6v-.6c-.1.2-.3.4-.5.5-.2.1-.4.2-.7.2-.3 0-.6-.1-.8-.3s-.3-.5-.3-.8v-2.6h.6v2.6c0 .3 0 .4.1.5s.2.2.4.2c.4 0 .7-.2.9-.6v-2.6h.6v3.5zM275.4 44.1c-.1-.1-.2-.3-.2-.6V39l.6-.1v4.5c0 .1 0 .2.1.2 0 0 .1.1.2.1s.2 0 .2 0l.2.4c-.2.1-.3.1-.5.1-.3.1-.5 0-.6-.1zM277.9 38.9c.1.1.1.2.1.3s0 .2-.1.3-.2.1-.3.1c-.1 0-.2 0-.3-.1s-.1-.2-.1-.3 0-.2.1-.3.2-.1.3-.1c.1-.1.2 0 .3.1zm0 1.6v3.7h-.6v-3.7h.6zM282 42.6h-2.4c0 .4.1.7.3.9.2.2.4.3.7.3.2 0 .3 0 .5-.1.1-.1.3-.1.5-.2l.3.4c-.4.3-.8.5-1.3.5s-.9-.2-1.2-.5-.4-.8-.4-1.4c0-.4.1-.7.2-1 .1-.3.3-.5.5-.7s.5-.3.8-.3c.5 0 .9.2 1.1.5.3.3.4.8.4 1.3 0 .1 0 .2 0 .3zm-.6-.5c0-.4-.1-.6-.2-.8s-.4-.3-.7-.3c-.5 0-.8.4-.9 1.2l1.8-.1z" class="st11"/></g><defs><path id="SVGID_7_" d="M207.4 88.6h-43.8v6.7h43.8v-6.7"/></defs><clipPath id="SVGID_8_"><use xlink:href="#SVGID_7_" overflow="visible"/></clipPath><g class="st14"><path d="M167 89l-.1.6h-1.3v4.3h-.6v-4.3h-1.4V89h3.4zM170 93.3c.1.1.1.1.2.2l-.1.4c-.2 0-.3-.1-.5-.2-.1-.1-.2-.2-.3-.4-.2.4-.6.6-1.1.6-.4 0-.7-.1-.9-.3-.2-.2-.3-.5-.3-.8 0-.4.1-.7.4-.9.3-.2.7-.3 1.2-.3h.6v-.3c0-.3-.1-.4-.2-.6-.1-.1-.3-.2-.6-.2s-.6.1-1 .2l-.2-.5c.5-.2.9-.3 1.3-.3s.8.1 1 .3c.2.2.3.5.3.9V93c.1.1.1.2.2.3zm-.7-.4V92h-.5c-.7 0-1 .3-1 .8 0 .2.1.4.2.5.1.1.3.2.5.2.3-.1.6-.3.8-.6zM173.9 90.6c.2.3.4.8.4 1.4 0 .4-.1.7-.2 1-.1.3-.3.5-.5.7-.2.2-.5.2-.8.2-.4 0-.7-.2-1-.5l-.1.4h-.6v-5.2l.6-.1v2c.3-.4.6-.5 1-.5.6.1 1 .2 1.2.6zm-.5 2.5c.2-.2.2-.6.2-1.1 0-.5-.1-.9-.2-1.1-.1-.2-.4-.3-.6-.3-.3 0-.6.2-.9.6V93c.1.2.2.3.4.4.1.1.3.1.5.1.2-.1.4-.2.6-.4zM175.6 93.7c-.1-.1-.2-.3-.2-.6v-4.4l.6-.1v4.5c0 .1 0 .2.1.2 0 0 .1.1.2.1s.2 0 .2 0l.2.4c-.2.1-.3.1-.5.1-.3 0-.5-.1-.6-.2zM180.2 92.2h-2.4c0 .4.1.7.3.9s.4.3.7.3c.2 0 .3 0 .5-.1s.3-.1.5-.2l.3.4c-.4.3-.8.5-1.3.5s-.9-.2-1.2-.5c-.3-.3-.4-.8-.4-1.4 0-.4.1-.7.2-1 .1-.3.3-.5.5-.7.2-.2.5-.3.8-.3.5 0 .9.2 1.1.5s.4.8.4 1.3c0 .1 0 .2 0 .3zm-.6-.5c0-.4-.1-.6-.2-.8s-.4-.3-.7-.3c-.5 0-.8.4-.9 1.2l1.8-.1zM184.8 90.2c.2.1.4.2.6.3l-.3.4c-.2-.1-.3-.2-.5-.2-.2-.1-.3-.1-.5-.1s-.4 0-.5.1c-.1.1-.2.2-.2.4s.1.3.2.4c.1.1.3.2.6.2.4.1.7.2.9.4.2.2.3.4.3.7 0 .4-.1.6-.4.8-.3.2-.6.3-1 .3-.6 0-1-.2-1.4-.5l.3-.4c.3.2.7.4 1 .4.2 0 .4-.1.6-.2.1-.1.2-.2.2-.4 0-.1 0-.2-.1-.3s-.1-.1-.3-.2c-.1-.1-.3-.1-.6-.2-.4-.1-.7-.2-.9-.4-.2-.2-.3-.4-.3-.7 0-.2.1-.4.2-.5.1-.2.3-.3.5-.4.2-.1.4-.1.7-.1s.7.1.9.2zM189.1 93.8h-.6v-.6c-.1.2-.3.4-.5.5-.2.1-.4.2-.7.2-.3 0-.6-.1-.8-.3s-.3-.5-.3-.8v-2.6h.6v2.6c0 .3 0 .4.1.5.1.1.2.2.4.2.4 0 .7-.2.9-.6v-2.6h.6v3.5zM193.2 90.6c.2.3.3.8.3 1.4 0 .6-.1 1-.4 1.4s-.6.5-1.1.5c-.4 0-.7-.1-1-.4v1.8l-.6.1v-5.2h.6v.5c.1-.2.3-.3.5-.4.2-.1.4-.2.6-.2.5 0 .8.1 1.1.5zm-.4 1.4c0-.9-.3-1.4-.8-1.4-.2 0-.3.1-.5.2-.1.1-.3.2-.4.4V93c.1.1.2.3.4.3.1.1.3.1.5.1.5 0 .8-.5.8-1.4zM197.3 90.6c.2.3.3.8.3 1.4 0 .6-.1 1-.4 1.4s-.6.5-1.1.5c-.4 0-.7-.1-1-.4v1.8l-.6.1v-5.2h.6v.5c.1-.2.3-.3.5-.4.2-.1.4-.2.6-.2.6 0 .9.1 1.1.5zM197 92c0-.9-.3-1.4-.8-1.4-.2 0-.3.1-.5.2-.1.1-.3.2-.4.4V93c.1.1.2.3.4.3.1.1.3.1.5.1.5 0 .8-.5.8-1.4zM201.3 90.6c.3.3.4.8.4 1.4 0 .4-.1.7-.2 1-.1.3-.3.5-.6.7-.2.2-.5.2-.9.2-.5 0-.9-.2-1.2-.5-.3-.3-.4-.8-.4-1.4 0-.4.1-.7.2-1s.3-.5.6-.7c.2-.2.5-.2.9-.2.6 0 1 .1 1.2.5zm-2.1 1.4c0 .9.3 1.4 1 1.4s1-.5 1-1.4c0-.9-.3-1.4-.9-1.4-.8 0-1.1.5-1.1 1.4zM204.8 90.1l-.1.6c-.1 0-.2 0-.3 0-.2 0-.4.1-.6.3s-.2.4-.3.8v2.1h-.6v-3.7h.6l.1.7c.1-.3.2-.5.4-.6.2-.1.4-.2.6-.2 0 0 .1 0 .2 0zM207.4 93.7c-.2.2-.5.3-.8.3-.3 0-.6-.1-.7-.3-.2-.2-.3-.4-.3-.8v-2.2h-.6v-.5h.6v-.8l.6-.1v.9h.9l-.1.5h-.8v2.2c0 .2 0 .3.1.4.1.1.2.1.3.1.1 0 .3 0 .5-.1l.3.4z" class="st11"/></g><defs><path id="SVGID_9_" d="M217.6 114.1h-33.5v5.3h33.5v-5.3"/></defs><clipPath id="SVGID_10_"><use xlink:href="#SVGID_9_" overflow="visible"/></clipPath><g class="st15"><path d="M188.6 119.3h-.6l-.2-2.2c-.1-.9-.1-1.5-.1-2l-1 3.6h-.6l-1.1-3.6c0 .6 0 1.3-.1 2l-.2 2.1h-.6l.4-4.8h.9l1 3.5 1-3.5h.9l.3 4.9zM192.3 118.8c.1.1.1.1.2.2l-.1.4c-.2 0-.3-.1-.5-.2-.1-.1-.2-.2-.3-.4-.2.4-.6.6-1.1.6-.4 0-.7-.1-.9-.3-.2-.2-.3-.5-.3-.8 0-.4.1-.7.4-.9s.7-.3 1.2-.3h.6v-.3c0-.3-.1-.4-.2-.6s-.3-.2-.6-.2-.6.1-1 .2l-.2-.5c.5-.2.9-.3 1.3-.3s.8.1 1 .3c.2.2.3.5.3.9v1.7c.1.3.2.4.2.5zm-.7-.4v-.8h-.5c-.7 0-1 .3-1 .8 0 .2.1.4.2.5.1.1.3.2.5.2.3-.2.6-.3.8-.7zM195.2 115.7c.2.1.4.2.6.3l-.3.4c-.2-.1-.3-.2-.5-.2-.2-.1-.3-.1-.5-.1s-.4 0-.5.1c-.1.1-.2.2-.2.4s.1.3.2.4.3.2.6.2c.4.1.7.2.9.4.2.2.3.4.3.7 0 .4-.1.6-.4.8s-.6.3-1 .3c-.6 0-1-.2-1.4-.5l.3-.4c.3.2.7.4 1 .4.2 0 .4-.1.6-.2.1-.1.2-.2.2-.4 0-.1 0-.2-.1-.3-.1-.1-.1-.1-.3-.2-.1-.1-.3-.1-.6-.2-.4-.1-.7-.2-.9-.4-.2-.2-.3-.4-.3-.7 0-.2.1-.4.2-.5s.3-.3.5-.4c.2-.1.4-.1.7-.1s.7.1.9.2zM198.4 115.7c.2.1.4.2.6.3l-.3.4c-.2-.1-.3-.2-.5-.2-.2-.1-.3-.1-.5-.1s-.4 0-.5.1c-.1.1-.2.2-.2.4s.1.3.2.4.3.2.6.2c.4.1.7.2.9.4.2.2.3.4.3.7 0 .4-.1.6-.4.8s-.6.3-1 .3c-.6 0-1-.2-1.4-.5l.3-.4c.3.2.7.4 1 .4.2 0 .4-.1.6-.2.1-.1.2-.2.2-.4 0-.1 0-.2-.1-.3-.1-.1-.1-.1-.3-.2-.1-.1-.3-.1-.6-.2-.4-.1-.7-.2-.9-.4-.2-.2-.3-.4-.3-.7 0-.2.1-.4.2-.5s.3-.3.5-.4c.2-.1.4-.1.7-.1s.7.1.9.2zM202.7 117.7h-2.4c0 .4.1.7.3.9.2.2.4.3.7.3.2 0 .3 0 .5-.1.1-.1.3-.1.5-.2l.3.4c-.4.3-.8.5-1.3.5s-.9-.2-1.2-.5c-.3-.3-.4-.8-.4-1.4 0-.4.1-.7.2-1 .1-.3.3-.5.5-.7.2-.2.5-.3.8-.3.5 0 .9.2 1.1.5.3.3.4.8.4 1.3 0 .1 0 .2 0 .3zm-.6-.5c0-.4-.1-.6-.2-.8s-.4-.3-.7-.3c-.5 0-.8.4-.9 1.2l1.8-.1zM203.9 119.2c-.1-.1-.2-.3-.2-.6v-4.4l.6-.1v4.5c0 .1 0 .2.1.2 0 0 .1.1.2.1s.2 0 .2 0l.2.4c-.2.1-.3.1-.5.1s-.4 0-.6-.2zM208.4 116.1c.3.3.4.8.4 1.4 0 .4-.1.7-.2 1-.1.3-.3.5-.6.7s-.5.2-.9.2c-.5 0-.9-.2-1.2-.5-.3-.3-.4-.8-.4-1.4 0-.4.1-.7.2-1s.3-.5.6-.7.5-.2.9-.2c.5 0 .9.1 1.2.5zm-2.2 1.4c0 .9.3 1.4 1 1.4s1-.5 1-1.4c0-.9-.3-1.4-.9-1.4-.8 0-1.1.5-1.1 1.4zM211.7 119.2c-.2.2-.5.3-.8.3-.3 0-.6-.1-.7-.3s-.3-.4-.3-.8v-2.2h-.6v-.5h.6v-.8l.6-.1v.9h.9l-.1.5h-.8v2.2c0 .2 0 .3.1.4.1.1.2.1.3.1.1 0 .3 0 .5-.1l.3.4zM214.3 119.2c-.2.2-.5.3-.8.3-.3 0-.6-.1-.7-.3s-.3-.4-.3-.8v-2.2h-.6v-.5h.6v-.8l.6-.1v.9h.9l-.1.5h-.8v2.2c0 .2 0 .3.1.4.1.1.2.1.3.1.1 0 .3 0 .5-.1l.3.4zM217.6 117.7h-2.4c0 .4.1.7.3.9s.4.3.7.3c.2 0 .3 0 .5-.1s.3-.1.5-.2l.3.4c-.4.3-.8.5-1.3.5s-.9-.2-1.2-.5-.4-.8-.4-1.4c0-.4.1-.7.2-1 .1-.3.3-.5.5-.7.2-.2.5-.3.8-.3.5 0 .9.2 1.1.5s.4.8.4 1.3c0 .1 0 .2 0 .3zm-.6-.5c0-.4-.1-.6-.2-.8s-.4-.3-.7-.3c-.5 0-.8.4-.9 1.2l1.8-.1z" class="st11"/></g><path d="M259.5 42.2h-16.2v.5h16.2M159.2 11.1v7.2h.5v-7.2M44.5 11.1v7.2h.5v-7.2M218.5 118.4h12.2v-.5h-12.2M185.7 86.8V65.6h-.5v21.2" class="st16"/><circle cx="234.3" cy="41.6" r="6.9" class="st17"/><path d="M238.8 41.6h-.5c0 1.1-.4 2.1-1.2 2.8-.7.7-1.7 1.2-2.8 1.2-1.1 0-2.1-.4-2.8-1.2-.7-.7-1.2-1.7-1.2-2.8 0-1.1.4-2.1 1.2-2.8.7-.7 1.7-1.2 2.8-1.2 1.1 0 2.1.4 2.8 1.2.7.7 1.2 1.7 1.2 2.8h1c0-2.7-2.2-5-5-5-2.7 0-5 2.2-5 5 0 2.7 2.2 5 5 5 2.7 0 5-2.2 5-5h-.5z" class="st18"/></svg>